<svg width="41" height="41" viewBox="0 0 41 41" fill="none" xmlns="http://www.w3.org/2000/svg">
<rect x="0.742798" y="0.673904" width="39.9667" height="39.9667" rx="8.32639" fill="#282C35"/>
<path d="M29.0525 21.1734V22.8887C29.0525 23.355 28.6695 23.738 28.1949 23.738H26.5879C25.6886 23.738 24.8643 23.0802 24.7894 22.1809C24.7394 21.6564 24.9393 21.1651 25.289 20.8237C25.5971 20.5073 26.0217 20.3242 26.488 20.3242H28.1949C28.6695 20.3242 29.0525 20.7072 29.0525 21.1734Z" fill="#78BE20"/>
<path d="M23.5402 22.2892C23.4653 21.415 23.7817 20.5573 24.4145 19.9329C24.9474 19.3916 25.6885 19.0752 26.4878 19.0752H26.9624C27.1955 19.0752 27.387 18.8837 27.3537 18.6506C27.1289 17.0353 25.7301 15.7863 24.0565 15.7863H15.7301C13.89 15.7863 12.3995 17.2767 12.3995 19.1169V24.9453C12.3995 26.7855 13.89 28.2759 15.7301 28.2759H24.0565C25.7384 28.2759 27.1289 27.0269 27.3537 25.4116C27.387 25.1785 27.1955 24.987 26.9624 24.987H26.5877C25.0057 24.987 23.6735 23.8046 23.5402 22.2892ZM21.5586 20.574H16.5627C16.2213 20.574 15.9383 20.2992 15.9383 19.9495C15.9383 19.5998 16.2213 19.325 16.5627 19.325H21.5586C21.8999 19.325 22.183 19.6081 22.183 19.9495C22.183 20.2909 21.8999 20.574 21.5586 20.574Z" fill="#78BE20"/>
<path d="M22.5661 13.9794C22.7826 14.2043 22.5911 14.5373 22.2747 14.5373H15.7552C14.8476 14.5373 13.9983 14.8038 13.2906 15.2617C12.9658 15.4699 12.5245 15.2451 12.6827 14.887C13.149 13.7963 14.2398 13.0386 15.497 13.0386H20.1765C21.1423 13.0386 22 13.3799 22.5661 13.9794Z" fill="#78BE20"/>
</svg>
