<svg width="41" height="41" viewBox="0 0 41 41" fill="none" xmlns="http://www.w3.org/2000/svg">
<rect x="0.742737" y="0.673904" width="39.9667" height="39.9667" rx="8.32639" fill="#282C35"/>
<path d="M29.052 16.952C29.052 17.5016 28.6024 17.9512 28.0528 17.9512H13.3984C12.8489 17.9512 12.3992 17.5016 12.3992 16.952V16.9437C12.3992 15.0369 13.9396 13.4966 15.8464 13.4966H25.5966C27.5033 13.4966 29.052 15.0453 29.052 16.952Z" fill="#78BE20"/>
<path d="M12.3992 20.1993V24.3708C12.3992 26.2775 13.9396 27.8179 15.8464 27.8179H25.5966C27.5033 27.8179 29.052 26.2692 29.052 24.3625V20.1993C29.052 19.6497 28.6024 19.2001 28.0528 19.2001H13.3984C12.8489 19.2001 12.3992 19.6497 12.3992 20.1993ZM17.3951 25.0286H15.7298C15.3884 25.0286 15.1053 24.7455 15.1053 24.4041C15.1053 24.0627 15.3884 23.7796 15.7298 23.7796H17.3951C17.7364 23.7796 18.0195 24.0627 18.0195 24.4041C18.0195 24.7455 17.7364 25.0286 17.3951 25.0286ZM22.8072 25.0286H19.4767C19.1353 25.0286 18.8522 24.7455 18.8522 24.4041C18.8522 24.0627 19.1353 23.7796 19.4767 23.7796H22.8072C23.1486 23.7796 23.4317 24.0627 23.4317 24.4041C23.4317 24.7455 23.1486 25.0286 22.8072 25.0286Z" fill="#78BE20"/>
</svg>
