<svg width="41" height="41" viewBox="0 0 41 41" fill="none" xmlns="http://www.w3.org/2000/svg">
<rect x="0.743042" y="0.673904" width="39.9667" height="39.9667" rx="8.32639" fill="#282C35"/>
<path d="M20.6767 12.5057L18.6701 17.1768H16.6634C16.3303 17.1768 16.0056 17.2017 15.6892 17.2684L16.5218 15.27L16.5552 15.1951L16.6051 15.0619C16.6301 15.0036 16.6467 14.9536 16.6717 14.912C17.6376 12.6722 18.72 11.9728 20.6767 12.5057Z" fill="#78BE20"/>
<path d="M26.3303 17.4016L26.3136 17.3933C25.814 17.2518 25.3061 17.1768 24.7899 17.1768H19.5776L21.451 12.8221L21.476 12.7638C21.5926 12.8055 21.7175 12.8637 21.8424 12.9054L23.6825 13.6797C24.7066 14.1044 25.4227 14.5457 25.864 15.0786C25.9389 15.1785 26.0055 15.2701 26.0722 15.3783C26.1471 15.4949 26.2054 15.6115 26.2387 15.7364C26.272 15.8113 26.297 15.8779 26.3136 15.9528C26.4385 16.3775 26.4468 16.8604 26.3303 17.4016Z" fill="#78BE20"/>
<path d="M21.1595 25.3699H21.3677C21.6175 25.3699 21.8257 25.1451 21.8257 24.8703C21.8257 24.5206 21.7257 24.4707 21.5093 24.3874L21.1595 24.2625V25.3699Z" fill="#78BE20"/>
<path d="M25.964 18.5922C25.5893 18.484 25.198 18.4257 24.79 18.4257H16.6634C16.0972 18.4257 15.5644 18.534 15.0648 18.7504C13.616 19.3749 12.6002 20.8154 12.6002 22.489V24.1126C12.6002 24.3125 12.6168 24.504 12.6418 24.7038C12.825 27.3516 14.2405 28.7671 16.8882 28.9419C17.0798 28.9669 17.2713 28.9836 17.4794 28.9836H23.974C27.0548 28.9836 28.6784 27.5181 28.8366 24.6039C28.8449 24.4457 28.8533 24.2792 28.8533 24.1126V22.489C28.8533 20.6489 27.6293 19.1002 25.964 18.5922ZM21.7925 23.5714C22.1755 23.7046 22.6917 23.9877 22.6917 24.8703C22.6917 25.628 22.1006 26.2359 21.3678 26.2359H21.1597V26.419C21.1597 26.6605 20.9682 26.852 20.7267 26.852C20.4852 26.852 20.2937 26.6605 20.2937 26.419V26.2359H20.2188C19.4195 26.2359 18.7617 25.5614 18.7617 24.7288C18.7617 24.4873 18.9532 24.2958 19.1947 24.2958C19.4361 24.2958 19.6276 24.4873 19.6276 24.7288C19.6276 25.0785 19.8941 25.3699 20.2188 25.3699H20.2937V23.9628L19.6609 23.738C19.2779 23.6047 18.7617 23.3216 18.7617 22.439C18.7617 21.6813 19.3529 21.0735 20.0856 21.0735H20.2937V20.8903C20.2937 20.6489 20.4852 20.4574 20.7267 20.4574C20.9682 20.4574 21.1597 20.6489 21.1597 20.8903V21.0735H21.2346C22.034 21.0735 22.6917 21.7479 22.6917 22.5806C22.6917 22.8221 22.5002 23.0136 22.2588 23.0136C22.0173 23.0136 21.8258 22.8221 21.8258 22.5806C21.8258 22.2309 21.5594 21.9395 21.2346 21.9395H21.1597V23.3466L21.7925 23.5714Z" fill="#78BE20"/>
<path d="M19.6276 22.4391C19.6276 22.7888 19.7275 22.8388 19.944 22.922L20.2937 23.0469V21.9395H20.0856C19.8275 21.9395 19.6276 22.1643 19.6276 22.4391Z" fill="#78BE20"/>
</svg>
