<svg width="41" height="41" viewBox="0 0 41 41" fill="none" xmlns="http://www.w3.org/2000/svg">
<rect x="0.74292" y="0.673889" width="39.9667" height="39.9667" rx="8.32639" fill="#282C35"/>
<path d="M21.3506 23.9211H21.8919C22.4331 23.9211 22.8827 23.4382 22.8827 22.8553C22.8827 22.1309 22.6246 21.9894 22.1999 21.8395L21.359 21.5481V23.9211H21.3506Z" fill="#78BE20"/>
<path d="M20.7012 12.2476C16.1051 12.2642 12.3832 16.0028 12.3998 20.5989C12.4165 25.1951 16.155 28.917 20.7512 28.9004C25.3474 28.8837 29.0693 25.1451 29.0526 20.549C29.036 15.9528 25.2974 12.2392 20.7012 12.2476ZM22.608 20.6572C23.2574 20.882 24.1317 21.365 24.1317 22.8554C24.1317 24.1377 23.1242 25.1701 21.8919 25.1701H21.3507V25.6531C21.3507 25.9944 21.0676 26.2775 20.7262 26.2775C20.3848 26.2775 20.1017 25.9944 20.1017 25.6531V25.1701H19.802C18.4365 25.1701 17.3291 24.0211 17.3291 22.6056C17.3291 22.2642 17.6122 21.9811 17.9535 21.9811C18.2949 21.9811 18.578 22.2642 18.578 22.6056C18.578 23.33 19.1276 23.9212 19.802 23.9212H20.1017V21.1068L18.8445 20.6572C18.195 20.4324 17.3207 19.9495 17.3207 18.4591C17.3207 17.1768 18.3282 16.1443 19.5605 16.1443H20.1017V15.6614C20.1017 15.32 20.3848 15.0369 20.7262 15.0369C21.0676 15.0369 21.3507 15.32 21.3507 15.6614V16.1443H21.6505C23.016 16.1443 24.1234 17.2934 24.1234 18.7088C24.1234 19.0502 23.8403 19.3333 23.4989 19.3333C23.1575 19.3333 22.8744 19.0502 22.8744 18.7088C22.8744 17.9845 22.3249 17.3933 21.6505 17.3933H21.3507V20.2076L22.608 20.6572Z" fill="#78BE20"/>
<path d="M18.5779 18.4673C18.5779 19.1917 18.8361 19.3333 19.2607 19.4831L20.1017 19.7746V17.3932H19.5605C19.0192 17.3932 18.5779 17.8761 18.5779 18.4673Z" fill="#78BE20"/>
</svg>
